<svg xmlns="http://www.w3.org/2000/svg" viewBox="0 0 100 100">
  <g stroke="#4a4f57" stroke-width="6" stroke-linecap="round" fill="none">
    <line x1="4"  y1="60" x2="24" y2="55"/>
    <line x1="7"  y1="75" x2="26" y2="66"/>
    <line x1="96" y1="60" x2="76" y2="55"/>
    <line x1="93" y1="75" x2="74" y2="66"/>
  </g>
  <path d="M19 24 Q11 9 25 7 Q41 6 43 25 Z" fill="#4a4f57"/>
  <path d="M81 24 Q89 9 75 7 Q59 6 57 25 Z" fill="#4a4f57"/>
  <path d="M17 46 Q17 19 50 19 Q83 19 83 46 Q83 80 50 83 Q17 80 17 46 Z" fill="#4a4f57"/>
  <ellipse cx="36" cy="49" rx="7" ry="9" fill="#ffffff"/>
  <ellipse cx="64" cy="49" rx="7" ry="9" fill="#ffffff"/>
  <ellipse cx="50" cy="67" rx="8" ry="5" fill="#ffffff"/>
</svg>
